<svg width="256" height="256" viewBox="0 0 256 256" fill="none" xmlns="http://www.w3.org/2000/svg">
<path fill-rule="evenodd" clip-rule="evenodd" d="M250 121.841L219.986 94.7127C217.1 77.974 202.67 59.5037 179.005 53.1545C165.617 39.2708 145.84 40.7217 136.506 41.4065C134.974 41.5189 133.724 41.6106 132.829 41.6106L151.876 55.4633C137.447 60.6581 114.936 83.746 116.09 110.297C96.6964 103.859 49.7126 93.5249 7 103.914C9.25653 105.9 11.4533 107.732 13.5677 109.494C24.974 119.003 33.9803 126.51 37.0143 145.473C51.5134 236.093 177.85 245.361 189.394 136.271C199.784 133.385 203.824 127.805 206.71 122.995L250 121.841ZM170.924 110.264C179.212 110.264 185.931 103.545 185.931 95.2565C185.931 86.9683 179.212 80.2494 170.924 80.2494C162.636 80.2494 155.917 86.9683 155.917 95.2565C155.917 103.545 162.636 110.264 170.924 110.264ZM120.708 158.782C120.708 166.113 114.764 172.057 107.432 172.057C100.1 172.057 94.1568 166.113 94.1568 158.782C94.1568 151.45 100.1 145.506 107.432 145.506C114.764 145.506 120.708 151.45 120.708 158.782ZM103.78 115.654C102.505 115.654 101.471 116.688 101.471 117.963V122.191C94.7162 123.162 88.5427 125.932 83.4519 130L80.5687 127.117C79.6671 126.215 78.2052 126.215 77.3036 127.117L73.8005 130.62C72.8988 131.522 72.8988 132.983 73.8005 133.885L76.7918 136.876C72.8972 142.084 70.3237 148.336 69.5684 155.138H65.4929C64.2178 155.138 63.1841 156.171 63.1841 157.447V162.401C63.1841 163.676 64.2178 164.71 65.4929 164.71H69.7207C70.6914 171.464 73.4615 177.638 77.5297 182.729L74.6465 185.612C73.7449 186.513 73.7449 187.975 74.6465 188.877L78.1496 192.38C79.0512 193.282 80.5131 193.282 81.4147 192.38L84.4061 189.389C89.3065 193.054 95.1329 195.549 101.471 196.46V200.688C101.471 201.963 102.505 202.996 103.78 202.996H108.734C110.009 202.996 111.043 201.963 111.043 200.688V196.612C117.844 195.857 124.097 193.283 129.304 189.389L132.295 192.38C133.197 193.282 134.659 193.282 135.561 192.38L139.064 188.877C139.965 187.975 139.965 186.513 139.064 185.612L136.181 182.729C140.249 177.638 143.019 171.464 143.989 164.71H148.217C149.492 164.71 150.526 163.676 150.526 162.401V157.447C150.526 156.171 149.492 155.138 148.217 155.138H144.142C143.386 148.336 140.813 142.084 136.918 136.876L139.91 133.885C140.811 132.983 140.811 131.522 139.91 130.62L136.407 127.117C135.505 126.215 134.043 126.215 133.141 127.117L130.258 130C124.868 125.693 118.265 122.841 111.043 122.039V117.963C111.043 116.688 110.009 115.654 108.734 115.654H103.78ZM131.867 159.325C131.867 173.139 120.669 184.337 106.855 184.337C93.0414 184.337 81.8432 173.139 81.8432 159.325C81.8432 145.512 93.0414 134.314 106.855 134.314C120.669 134.314 131.867 145.512 131.867 159.325Z" fill="#44403C"/>
</svg>
